<svg width="342.60598144531247px" height="122px" xmlns="http://www.w3.org/2000/svg" viewBox="78.69700927734377 14 342.60598144531247 122" style="background: rgba(0, 0, 0, 0);" preserveAspectRatio="xMidYMid"><defs><filter id="editing-hole" x="-100%" y="-100%" width="300%" height="300%"><feFlood flood-color="#000" result="black"></feFlood><feMorphology operator="dilate" radius="2" in="SourceGraphic" result="erode"></feMorphology><feGaussianBlur in="erode" stdDeviation="4" result="blur"></feGaussianBlur><feOffset in="blur" dx="2" dy="2" result="offset"></feOffset><feComposite operator="atop" in="offset" in2="black" result="merge"></feComposite><feComposite operator="in" in="merge" in2="SourceGraphic" result="inner-shadow"></feComposite></filter></defs><g filter="url(#editing-hole)"><g transform="translate(131.6444113254547, 97.4000015258789)"><path d="M14.14 0L0.51 0L7.81-38.91L8.51-42.24L22.21-42.24L14.14 0ZM40.13-3.78L40.13-3.78L40.13-3.78Q38.40 1.28 31.74 1.28L31.74 1.28L31.74 1.28Q26.82 1.28 23.42-4.61L23.42-4.61L23.42-4.61Q19.97-10.50 19.33-20.10L19.33-20.10L19.33-20.10Q26.37-32.96 31.23-38.27L31.23-38.27L31.23-38.27Q35.90-43.33 40.77-43.33L40.77-43.33L40.77-43.33Q43.39-43.33 45.28-41.92L45.28-41.92L45.28-41.92Q47.17-40.51 47.62-38.27L47.62-38.27L47.62-38.27Q45.44-37.38 44.42-36.67L44.42-36.67L44.42-36.67Q41.86-34.75 38.40-30.46L38.40-30.46L32.58-23.49L32.58-23.49Q31.17-21.82 30.59-21.06L30.59-21.06L30.59-21.06Q31.55-15.68 34.43-10.37L34.43-10.37L34.43-10.37Q37.18-5.31 40.13-3.78ZM58.82 0L44.86 0L52.99-42.24L67.07-42.24L58.82 0ZM81.60 0L67.90 0L75.71-42.05L75.71-42.05Q82.05-42.75 91.30-42.75L91.30-42.75L91.30-42.75Q100.54-42.75 104.83-40.06L104.83-40.06L104.83-40.06Q109.12-37.38 109.12-31.97L109.12-31.97L109.12-31.97Q109.12-26.56 106.34-23.17L106.34-23.17L106.34-23.17Q103.55-19.78 98.75-18.69L98.75-18.69L98.75-18.69Q99.84-13.38 102.34-9.09L102.34-9.09L102.34-9.09Q104.64-5.06 107.33-3.78L107.33-3.78L107.33-3.78Q106.37-1.09 104.42 0.10L104.42 0.10L104.42 0.10Q102.46 1.28 99.68 1.28L99.68 1.28L99.68 1.28Q96.90 1.28 94.72-0.35L94.72-0.35L94.72-0.35Q92.54-1.98 90.82-4.99L90.82-4.99L90.82-4.99Q87.17-11.52 86.78-21.82L86.78-21.82L87.23-21.82L87.23-21.82Q91.97-21.95 94.34-24.42L94.34-24.42L94.34-24.42Q96.70-26.88 96.70-32.06L96.70-32.06L96.70-32.06Q96.70-38.53 91.26-38.78L91.26-38.78L89.86-38.78L89.86-38.78Q89.28-38.78 88.96-38.72L88.96-38.72L81.60 0ZM137.02-29.57L137.02-29.57L137.02-29.57Q137.98-31.49 137.98-33.28L137.98-33.28L137.98-33.28Q137.98-35.07 137.79-36.06L137.79-36.06L137.79-36.06Q137.60-37.06 137.15-37.82L137.15-37.82L137.15-37.82Q136.19-39.49 134.27-39.49L134.27-39.49L134.27-39.49Q131.90-39.49 129.98-37.76L129.98-37.76L129.98-37.76Q127.94-35.97 127.94-33.15L127.94-33.15L127.94-33.15Q127.94-31.36 129.18-29.98L129.18-29.98L129.18-29.98Q130.43-28.61 132.35-27.33L132.35-27.33L132.35-27.33Q134.27-26.05 136.45-24.77L136.45-24.77L136.45-24.77Q138.62-23.49 140.54-21.95L140.54-21.95L140.54-21.95Q144.96-18.43 144.96-13.70L144.96-13.70L144.96-13.70Q144.96-10.50 143.26-7.78L143.26-7.78L143.26-7.78Q141.57-5.06 138.75-3.07L138.75-3.07L138.75-3.07Q132.61 1.28 124.48 1.28L124.48 1.28L124.48 1.28Q117.89 1.28 114.50-0.86L114.50-0.86L114.50-0.86Q111.10-3.01 111.10-6.27L111.10-6.27L111.10-6.27Q111.10-12.10 115.65-13.57L115.65-13.57L115.65-13.57Q116.93-14.02 118.88-14.02L118.88-14.02L118.88-14.02Q120.83-14.02 123.07-13.18L123.07-13.18L123.07-13.18Q122.05-10.56 122.05-8.19L122.05-8.19L122.05-8.19Q122.05-3.07 125.70-3.07L125.70-3.07L125.70-3.07Q128.06-3.07 130.02-4.80L130.02-4.80L130.02-4.80Q131.97-6.53 131.97-8.48L131.97-8.48L131.97-8.48Q131.97-10.43 130.72-11.84L130.72-11.84L130.72-11.84Q129.47-13.25 127.62-14.37L127.62-14.37L127.62-14.37Q125.76-15.49 123.62-16.58L123.62-16.58L123.62-16.58Q121.47-17.66 119.62-19.20L119.62-19.20L119.62-19.20Q115.26-22.72 115.26-28.35L115.26-28.35L115.26-28.35Q115.26-32 117.06-34.85L117.06-34.85L117.06-34.85Q118.85-37.70 121.73-39.62L121.73-39.62L121.73-39.62Q127.49-43.52 134.56-43.52L134.56-43.52L134.56-43.52Q141.63-43.52 145.06-41.41L145.06-41.41L145.06-41.41Q148.48-39.30 148.48-35.71L148.48-35.71L148.48-35.71Q148.48-32.58 146.05-30.59L146.05-30.59L146.05-30.59Q143.94-28.93 141.38-28.93L141.38-28.93L141.38-28.93Q138.82-28.93 137.02-29.57ZM173.70-4.80L173.70-4.80L173.70-4.80Q173.70-9.28 175.49-18.24L175.49-18.24L166.02-18.24L162.50 0L149.12 0L157.25-42.24L170.75-42.24L167.04-23.36L176.51-23.36L180.03-42.24L193.54-42.24L193.54-42.24Q192.64-37.50 191.49-32.19L191.49-32.19L189.31-21.76L189.31-21.76Q186.88-9.60 186.88-4.29L186.88-4.29L186.88-4.29Q186.88-2.11 187.58-0.90L187.58-0.90L187.58-0.90Q184.38 1.28 180.64 1.28L180.64 1.28L180.64 1.28Q176.90 1.28 175.30-0.51L175.30-0.51L175.30-0.51Q173.70-2.30 173.70-4.80ZM196.29-9.47L196.29-9.47L196.29-9.47Q196.29-11.97 196.93-15.17L196.93-15.17L202.11-42.24L216.26-42.24L211.14-14.98L211.14-14.98Q210.56-11.97 210.56-9.76L210.56-9.76L210.56-9.76Q210.56-7.55 211.49-6.40L211.49-6.40L211.49-6.40Q212.42-5.25 214.14-5.25L214.14-5.25L214.14-5.25Q215.87-5.25 216.96-5.70L216.96-5.70L216.96-5.70Q218.05-6.14 218.94-7.23L218.94-7.23L218.94-7.23Q220.67-9.41 221.76-14.98L221.76-14.98L226.94-42.24L236.61-42.24L231.49-15.04L231.49-15.04Q229.70-5.95 224.77-2.30L224.77-2.30L224.77-2.30Q219.97 1.28 210.50 1.28L210.50 1.28L210.50 1.28Q203.39 1.28 199.62-1.79L199.62-1.79L199.62-1.79Q196.29-4.48 196.29-9.47Z" fill="#ccc"></path></g></g><style>text {
  font-size: 64px;
  font-family: Arial Black;
  dominant-baseline: central;
  text-anchor: middle;
}</style></svg>